<?xml version="1.0" standalone="no"?>
<!DOCTYPE svg PUBLIC "-//W3C//DTD SVG 20010904//EN"
 "http://www.w3.org/TR/2001/REC-SVG-20010904/DTD/svg10.dtd">
<svg version="1.0" xmlns="http://www.w3.org/2000/svg"
 width="96.000000pt" height="96.000000pt" viewBox="0 0 96.000000 96.000000"
 preserveAspectRatio="xMidYMid meet">
<metadata>
Created by potrace 1.11, written by Peter Selinger 2001-2013
</metadata>
<g transform="translate(0.000000,96.000000) scale(0.100000,-0.100000)"
fill="#000000" stroke="none">
<path d="M120 560 l0 -120 100 0 100 0 0 -40 0 -40 -100 0 -100 0 0 -40 0 -40
115 0 c110 0 117 1 140 25 21 20 25 34 25 84 0 107 -25 131 -135 131 l-65 0 0
40 0 40 100 0 100 0 0 40 0 40 -140 0 -140 0 0 -120z"/>
<path d="M505 655 c-24 -23 -25 -28 -25 -175 0 -147 1 -152 25 -175 23 -24 29
-25 155 -25 126 0 132 1 155 25 23 22 25 32 25 120 l0 95 -80 0 -80 0 0 -40 0
-40 40 0 40 0 0 -40 0 -40 -100 0 -100 0 0 120 0 120 140 0 c77 0 140 2 140 5
0 18 -26 55 -47 64 -13 6 -77 11 -144 11 -114 0 -121 -1 -144 -25z"/>
</g>
</svg>
